<mxfile host="65bd71144e">
    <diagram id="Ya1TQKRHjyxXjagJPPfJ" name="ページ1">
        <mxGraphModel dx="1119" dy="768" grid="1" gridSize="10" guides="1" tooltips="1" connect="1" arrows="1" fold="1" page="1" pageScale="1" pageWidth="827" pageHeight="1169" math="1" shadow="0">
            <root>
                <mxCell id="0"/>
                <mxCell id="1" parent="0"/>
                <mxCell id="174" value="" style="endArrow=classic;html=1;" parent="1" edge="1">
                    <mxGeometry width="50" height="50" relative="1" as="geometry">
                        <mxPoint x="400" y="1720" as="sourcePoint"/>
                        <mxPoint x="360" y="1800" as="targetPoint"/>
                    </mxGeometry>
                </mxCell>
                <mxCell id="3" value="$$LootPosition$$" style="rounded=0;whiteSpace=wrap;html=1;fillColor=#f5f5f5;fontColor=#333333;strokeColor=#666666;" parent="1" vertex="1">
                    <mxGeometry x="140" y="10" width="80" height="30" as="geometry"/>
                </mxCell>
                <mxCell id="4" value="$$PassingPosition$$" style="rounded=0;whiteSpace=wrap;html=1;fillColor=#dae8fc;strokeColor=#6c8ebf;" parent="1" vertex="1">
                    <mxGeometry x="390" y="10" width="80" height="30" as="geometry"/>
                </mxCell>
                <mxCell id="5" value="$$ProcessPosition$$" style="rounded=0;whiteSpace=wrap;html=1;fillColor=#e1d5e7;strokeColor=#9673a6;" parent="1" vertex="1">
                    <mxGeometry x="260" y="10" width="80" height="30" as="geometry"/>
                </mxCell>
                <mxCell id="6" value="$$Robot$$" style="shape=hexagon;perimeter=hexagonPerimeter2;whiteSpace=wrap;html=1;fixedSize=1;fillColor=#d5e8d4;strokeColor=#82b366;" parent="1" vertex="1">
                    <mxGeometry x="30" y="10" width="80" height="30" as="geometry"/>
                </mxCell>
                <mxCell id="17" value="Text" style="text;html=1;strokeColor=none;fillColor=none;align=left;verticalAlign=top;whiteSpace=wrap;rounded=0;" parent="1" vertex="1">
                    <mxGeometry y="60" width="800" height="40" as="geometry"/>
                </mxCell>
                <mxCell id="19" value="\(LootPosition\)と\(Robot\)と\(Position\)の間に成立し得るグラフ構造は以下．&lt;br&gt;ここで言う\(Position\)は\(PassingPosition\)と\(ProcessPosition\)のいずれであっても良い．&lt;br&gt;（ただし，\(ProcessPosition\)に延長は適用できない．）" style="text;html=1;strokeColor=none;fillColor=none;align=left;verticalAlign=top;whiteSpace=wrap;rounded=0;" parent="1" vertex="1">
                    <mxGeometry y="120" width="800" height="80" as="geometry"/>
                </mxCell>
                <mxCell id="32" style="edgeStyle=none;html=1;entryX=0.5;entryY=0;entryDx=0;entryDy=0;" parent="1" source="23" target="24" edge="1">
                    <mxGeometry relative="1" as="geometry"/>
                </mxCell>
                <mxCell id="37" style="edgeStyle=none;html=1;entryX=0.5;entryY=0;entryDx=0;entryDy=0;" parent="1" source="23" target="28" edge="1">
                    <mxGeometry relative="1" as="geometry"/>
                </mxCell>
                <mxCell id="62" style="edgeStyle=none;html=1;entryX=0.5;entryY=0;entryDx=0;entryDy=0;" parent="1" source="23" target="54" edge="1">
                    <mxGeometry relative="1" as="geometry"/>
                </mxCell>
                <mxCell id="63" style="edgeStyle=none;html=1;entryX=0.5;entryY=0;entryDx=0;entryDy=0;" parent="1" source="23" target="60" edge="1">
                    <mxGeometry relative="1" as="geometry"/>
                </mxCell>
                <mxCell id="72" style="edgeStyle=none;html=1;entryX=0.5;entryY=0;entryDx=0;entryDy=0;" parent="1" source="23" target="70" edge="1">
                    <mxGeometry relative="1" as="geometry"/>
                </mxCell>
                <mxCell id="23" value="$$LootPosition$$" style="rounded=0;whiteSpace=wrap;html=1;fillColor=#f5f5f5;strokeColor=#666666;fontColor=#333333;" parent="1" vertex="1">
                    <mxGeometry x="360" y="200" width="80" height="30" as="geometry"/>
                </mxCell>
                <mxCell id="34" style="edgeStyle=none;html=1;entryX=0.5;entryY=0;entryDx=0;entryDy=0;" parent="1" source="24" target="74" edge="1">
                    <mxGeometry relative="1" as="geometry">
                        <mxPoint x="130" y="380" as="targetPoint"/>
                    </mxGeometry>
                </mxCell>
                <mxCell id="24" value="$$Robot$$" style="shape=hexagon;perimeter=hexagonPerimeter2;whiteSpace=wrap;html=1;fixedSize=1;fillColor=#d5e8d4;strokeColor=#82b366;" parent="1" vertex="1">
                    <mxGeometry x="90" y="310" width="80" height="30" as="geometry"/>
                </mxCell>
                <mxCell id="51" style="edgeStyle=none;html=1;entryX=0.5;entryY=0;entryDx=0;entryDy=0;" parent="1" source="28" target="75" edge="1">
                    <mxGeometry relative="1" as="geometry">
                        <mxPoint x="260" y="380" as="targetPoint"/>
                    </mxGeometry>
                </mxCell>
                <mxCell id="52" style="edgeStyle=none;html=1;entryX=0.5;entryY=0;entryDx=0;entryDy=0;" parent="1" source="28" target="79" edge="1">
                    <mxGeometry relative="1" as="geometry">
                        <mxPoint x="370" y="380" as="targetPoint"/>
                    </mxGeometry>
                </mxCell>
                <mxCell id="28" value="$$Robot$$" style="shape=hexagon;perimeter=hexagonPerimeter2;whiteSpace=wrap;html=1;fixedSize=1;fillColor=#d5e8d4;strokeColor=#82b366;" parent="1" vertex="1">
                    <mxGeometry x="270" y="310" width="80" height="30" as="geometry"/>
                </mxCell>
                <mxCell id="53" style="edgeStyle=none;html=1;entryX=0.5;entryY=0;entryDx=0;entryDy=0;" parent="1" source="54" target="78" edge="1">
                    <mxGeometry relative="1" as="geometry">
                        <mxPoint x="500" y="380" as="targetPoint"/>
                    </mxGeometry>
                </mxCell>
                <mxCell id="54" value="$$Robot$$" style="shape=hexagon;perimeter=hexagonPerimeter2;whiteSpace=wrap;html=1;fixedSize=1;fillColor=#d5e8d4;strokeColor=#82b366;" parent="1" vertex="1">
                    <mxGeometry x="400" y="310" width="80" height="30" as="geometry"/>
                </mxCell>
                <mxCell id="61" style="edgeStyle=none;html=1;entryX=0.5;entryY=0;entryDx=0;entryDy=0;" parent="1" source="60" target="78" edge="1">
                    <mxGeometry relative="1" as="geometry">
                        <mxPoint x="500" y="380" as="targetPoint"/>
                    </mxGeometry>
                </mxCell>
                <mxCell id="60" value="$$Robot$$" style="shape=hexagon;perimeter=hexagonPerimeter2;whiteSpace=wrap;html=1;fixedSize=1;fillColor=#d5e8d4;strokeColor=#82b366;" parent="1" vertex="1">
                    <mxGeometry x="520" y="310" width="80" height="30" as="geometry"/>
                </mxCell>
                <mxCell id="66" value="単純" style="text;html=1;strokeColor=none;fillColor=none;align=center;verticalAlign=middle;whiteSpace=wrap;rounded=0;" parent="1" vertex="1">
                    <mxGeometry x="100" y="410" width="60" height="30" as="geometry"/>
                </mxCell>
                <mxCell id="67" value="分岐" style="text;html=1;strokeColor=none;fillColor=none;align=center;verticalAlign=middle;whiteSpace=wrap;rounded=0;" parent="1" vertex="1">
                    <mxGeometry x="280" y="410" width="60" height="30" as="geometry"/>
                </mxCell>
                <mxCell id="68" value="合流" style="text;html=1;strokeColor=none;fillColor=none;align=center;verticalAlign=middle;whiteSpace=wrap;rounded=0;" parent="1" vertex="1">
                    <mxGeometry x="470" y="410" width="60" height="30" as="geometry"/>
                </mxCell>
                <mxCell id="69" style="edgeStyle=none;html=1;entryX=0.5;entryY=0;entryDx=0;entryDy=0;" parent="1" source="70" target="77" edge="1">
                    <mxGeometry relative="1" as="geometry">
                        <mxPoint x="670" y="380" as="targetPoint"/>
                    </mxGeometry>
                </mxCell>
                <mxCell id="70" value="$$Robot$$" style="shape=hexagon;perimeter=hexagonPerimeter2;whiteSpace=wrap;html=1;fixedSize=1;fillColor=#d5e8d4;strokeColor=#82b366;" parent="1" vertex="1">
                    <mxGeometry x="630" y="310" width="80" height="30" as="geometry"/>
                </mxCell>
                <mxCell id="73" value="$$Position$$" style="rounded=0;whiteSpace=wrap;html=1;fillColor=#ffe6cc;strokeColor=#d79b00;" parent="1" vertex="1">
                    <mxGeometry x="510" y="10" width="80" height="30" as="geometry"/>
                </mxCell>
                <mxCell id="74" value="$$Position$$" style="rounded=0;whiteSpace=wrap;html=1;fillColor=#ffe6cc;strokeColor=#d79b00;" parent="1" vertex="1">
                    <mxGeometry x="90" y="380" width="80" height="30" as="geometry"/>
                </mxCell>
                <mxCell id="75" value="$$Position$$" style="rounded=0;whiteSpace=wrap;html=1;fillColor=#ffe6cc;strokeColor=#d79b00;" parent="1" vertex="1">
                    <mxGeometry x="220" y="380" width="80" height="30" as="geometry"/>
                </mxCell>
                <mxCell id="84" style="edgeStyle=none;html=1;" parent="1" source="77" target="81" edge="1">
                    <mxGeometry relative="1" as="geometry"/>
                </mxCell>
                <mxCell id="77" value="$$Position$$" style="rounded=0;whiteSpace=wrap;html=1;fillColor=#ffe6cc;strokeColor=#d79b00;" parent="1" vertex="1">
                    <mxGeometry x="630" y="380" width="80" height="30" as="geometry"/>
                </mxCell>
                <mxCell id="78" value="$$Position$$" style="rounded=0;whiteSpace=wrap;html=1;fillColor=#ffe6cc;strokeColor=#d79b00;" parent="1" vertex="1">
                    <mxGeometry x="460" y="380" width="80" height="30" as="geometry"/>
                </mxCell>
                <mxCell id="79" value="$$Position$$" style="rounded=0;whiteSpace=wrap;html=1;fillColor=#ffe6cc;strokeColor=#d79b00;" parent="1" vertex="1">
                    <mxGeometry x="330" y="380" width="80" height="30" as="geometry"/>
                </mxCell>
                <mxCell id="80" style="edgeStyle=none;html=1;entryX=0.5;entryY=0;entryDx=0;entryDy=0;" parent="1" source="81" target="82" edge="1">
                    <mxGeometry relative="1" as="geometry">
                        <mxPoint x="670" y="520" as="targetPoint"/>
                    </mxGeometry>
                </mxCell>
                <mxCell id="81" value="$$Robot$$" style="shape=hexagon;perimeter=hexagonPerimeter2;whiteSpace=wrap;html=1;fixedSize=1;fillColor=#d5e8d4;strokeColor=#82b366;" parent="1" vertex="1">
                    <mxGeometry x="630" y="450" width="80" height="30" as="geometry"/>
                </mxCell>
                <mxCell id="82" value="$$Position$$" style="rounded=0;whiteSpace=wrap;html=1;fillColor=#ffe6cc;strokeColor=#d79b00;" parent="1" vertex="1">
                    <mxGeometry x="630" y="520" width="80" height="30" as="geometry"/>
                </mxCell>
                <mxCell id="85" value="延長" style="text;html=1;strokeColor=none;fillColor=none;align=center;verticalAlign=middle;whiteSpace=wrap;rounded=0;" parent="1" vertex="1">
                    <mxGeometry x="640" y="560" width="60" height="30" as="geometry"/>
                </mxCell>
                <mxCell id="86" value="上記グラフ構造の組み合わせのもとに生成されるグラフ\(G\)に対して，同一品種の材料\(N\)個を，任意の\(ProcessPosition\)に向けて流す．&lt;br&gt;この際に，可能な限り早く全ての材料を\(ProcessPosition\)で処理しきる場合，各辺の流量をいくらにすれば良いかを考える．&lt;br&gt;各辺の流量は最小値0で，最大値は\(Position\)・\(Robot\)ごとに決められているとする．&lt;br&gt;各\(ProcessPosition\)で材料が処理される時間\(t_p\)は，材料の品種によって決められているものとする．&lt;br&gt;&lt;br&gt;また，\(Robot\)は互いに排他関係にある．\(Robot_1\)と\(Position_A\)の間の材料流量が\(1\geqq\)の時，他の\(Robot_l\)は\(Position_A\)との間に材料流量を持つことができない．&lt;br&gt;この関係性から，各辺の流量の最大値以外に，辺同士の排他制約を定式化する必要がある．&lt;br&gt;&lt;br&gt;" style="text;html=1;strokeColor=none;fillColor=none;align=left;verticalAlign=top;whiteSpace=wrap;rounded=0;" parent="1" vertex="1">
                    <mxGeometry y="610" width="800" height="140" as="geometry"/>
                </mxCell>
                <mxCell id="92" style="edgeStyle=none;html=1;entryX=0.5;entryY=0;entryDx=0;entryDy=0;" parent="1" source="87" target="88" edge="1">
                    <mxGeometry relative="1" as="geometry"/>
                </mxCell>
                <mxCell id="93" style="edgeStyle=none;html=1;entryX=0.5;entryY=0;entryDx=0;entryDy=0;" parent="1" source="87" target="89" edge="1">
                    <mxGeometry relative="1" as="geometry"/>
                </mxCell>
                <mxCell id="94" style="edgeStyle=none;html=1;entryX=0.5;entryY=0;entryDx=0;entryDy=0;" parent="1" source="87" target="90" edge="1">
                    <mxGeometry relative="1" as="geometry"/>
                </mxCell>
                <mxCell id="95" style="edgeStyle=none;html=1;entryX=0.5;entryY=0;entryDx=0;entryDy=0;" parent="1" source="87" target="91" edge="1">
                    <mxGeometry relative="1" as="geometry"/>
                </mxCell>
                <mxCell id="87" value="$$LootPosition$$" style="rounded=0;whiteSpace=wrap;html=1;fillColor=#f5f5f5;fontColor=#333333;strokeColor=#666666;" parent="1" vertex="1">
                    <mxGeometry x="360" y="800" width="80" height="30" as="geometry"/>
                </mxCell>
                <mxCell id="88" value="$$Robot1$$" style="shape=hexagon;perimeter=hexagonPerimeter2;whiteSpace=wrap;html=1;fixedSize=1;fillColor=#d5e8d4;strokeColor=#82b366;" parent="1" vertex="1">
                    <mxGeometry x="180" y="880" width="80" height="30" as="geometry"/>
                </mxCell>
                <mxCell id="89" value="$$Robot2$$" style="shape=hexagon;perimeter=hexagonPerimeter2;whiteSpace=wrap;html=1;fixedSize=1;fillColor=#d5e8d4;strokeColor=#82b366;" parent="1" vertex="1">
                    <mxGeometry x="300" y="880" width="80" height="30" as="geometry"/>
                </mxCell>
                <mxCell id="90" value="$$Robot3$$" style="shape=hexagon;perimeter=hexagonPerimeter2;whiteSpace=wrap;html=1;fixedSize=1;fillColor=#d5e8d4;strokeColor=#82b366;" parent="1" vertex="1">
                    <mxGeometry x="420" y="880" width="80" height="30" as="geometry"/>
                </mxCell>
                <mxCell id="91" value="$$Robot4$$" style="shape=hexagon;perimeter=hexagonPerimeter2;whiteSpace=wrap;html=1;fixedSize=1;fillColor=#d5e8d4;strokeColor=#82b366;" parent="1" vertex="1">
                    <mxGeometry x="540" y="880" width="80" height="30" as="geometry"/>
                </mxCell>
                <mxCell id="103" value="" style="edgeStyle=none;html=1;" parent="1" source="96" target="102" edge="1">
                    <mxGeometry relative="1" as="geometry"/>
                </mxCell>
                <mxCell id="96" value="cap: 4&lt;br&gt;transtime: 2" style="text;html=1;strokeColor=none;fillColor=none;align=center;verticalAlign=middle;whiteSpace=wrap;rounded=0;" parent="1" vertex="1">
                    <mxGeometry x="180" y="910" width="80" height="30" as="geometry"/>
                </mxCell>
                <mxCell id="105" value="" style="edgeStyle=none;html=1;" parent="1" source="97" target="104" edge="1">
                    <mxGeometry relative="1" as="geometry"/>
                </mxCell>
                <mxCell id="97" value="cap: 4&lt;br&gt;transtime: 4" style="text;html=1;strokeColor=none;fillColor=none;align=center;verticalAlign=middle;whiteSpace=wrap;rounded=0;" parent="1" vertex="1">
                    <mxGeometry x="300" y="910" width="80" height="30" as="geometry"/>
                </mxCell>
                <mxCell id="108" style="edgeStyle=none;html=1;entryX=0.5;entryY=0;entryDx=0;entryDy=0;" parent="1" source="98" target="106" edge="1">
                    <mxGeometry relative="1" as="geometry"/>
                </mxCell>
                <mxCell id="98" value="cap: 8&lt;br&gt;transtime: 4" style="text;html=1;strokeColor=none;fillColor=none;align=center;verticalAlign=middle;whiteSpace=wrap;rounded=0;" parent="1" vertex="1">
                    <mxGeometry x="420" y="910" width="80" height="30" as="geometry"/>
                </mxCell>
                <mxCell id="109" style="edgeStyle=none;html=1;" parent="1" source="99" target="107" edge="1">
                    <mxGeometry relative="1" as="geometry"/>
                </mxCell>
                <mxCell id="99" value="cap: 2&lt;br&gt;transtime: 0.5" style="text;html=1;strokeColor=none;fillColor=none;align=center;verticalAlign=middle;whiteSpace=wrap;rounded=0;" parent="1" vertex="1">
                    <mxGeometry x="540" y="910" width="80" height="30" as="geometry"/>
                </mxCell>
                <mxCell id="102" value="$$4 \div 2 = 2[/sec]$$" style="whiteSpace=wrap;html=1;" parent="1" vertex="1">
                    <mxGeometry x="160" y="960" width="120" height="40" as="geometry"/>
                </mxCell>
                <mxCell id="104" value="$$4 \div 4 = 1[/sec]$$" style="whiteSpace=wrap;html=1;" parent="1" vertex="1">
                    <mxGeometry x="280" y="960" width="120" height="40" as="geometry"/>
                </mxCell>
                <mxCell id="106" value="$$8 \div 4 = 2[/sec]$$" style="whiteSpace=wrap;html=1;" parent="1" vertex="1">
                    <mxGeometry x="400" y="960" width="120" height="40" as="geometry"/>
                </mxCell>
                <mxCell id="107" value="$$2 \div 0.5 = 4[/sec]$$" style="whiteSpace=wrap;html=1;" parent="1" vertex="1">
                    <mxGeometry x="520" y="960" width="120" height="40" as="geometry"/>
                </mxCell>
                <mxCell id="110" value="上図のような状況の例を考える．capは各\(Robot\)が持てる最大材料数を表し，transtimeは\(LootPosition\)から次の\(Position\)に材料を運ぶのにかかる時間である．定義から，各\(Robot\)が実現する材料流量は\(cap \div transtime \)で計算できる．&lt;br&gt;上記例で単位時間を\(1min\)とすると，\(LootPositon\)からの出力流量の合計だけを最大化する場合は，常に\(Robot4\)を使い続けて，材料流量\(4 \times 60[sec] = 240[/min]\)を実現するのが最適である．" style="text;html=1;strokeColor=none;fillColor=none;align=left;verticalAlign=top;whiteSpace=wrap;rounded=0;" parent="1" vertex="1">
                    <mxGeometry y="1020" width="800" height="100" as="geometry"/>
                </mxCell>
                <mxCell id="111" style="edgeStyle=none;html=1;entryX=0.5;entryY=0;entryDx=0;entryDy=0;" parent="1" source="115" target="116" edge="1">
                    <mxGeometry relative="1" as="geometry"/>
                </mxCell>
                <mxCell id="112" style="edgeStyle=none;html=1;entryX=0.5;entryY=0;entryDx=0;entryDy=0;" parent="1" source="115" target="117" edge="1">
                    <mxGeometry relative="1" as="geometry"/>
                </mxCell>
                <mxCell id="113" style="edgeStyle=none;html=1;entryX=0.5;entryY=0;entryDx=0;entryDy=0;" parent="1" source="115" target="118" edge="1">
                    <mxGeometry relative="1" as="geometry"/>
                </mxCell>
                <mxCell id="114" style="edgeStyle=none;html=1;entryX=0.5;entryY=0;entryDx=0;entryDy=0;" parent="1" source="115" target="119" edge="1">
                    <mxGeometry relative="1" as="geometry"/>
                </mxCell>
                <mxCell id="115" value="$$LootPosition$$" style="rounded=0;whiteSpace=wrap;html=1;fillColor=#f5f5f5;fontColor=#333333;strokeColor=#666666;" parent="1" vertex="1">
                    <mxGeometry x="360" y="1200" width="80" height="30" as="geometry"/>
                </mxCell>
                <mxCell id="116" value="$$Robot1$$" style="shape=hexagon;perimeter=hexagonPerimeter2;whiteSpace=wrap;html=1;fixedSize=1;fillColor=#d5e8d4;strokeColor=#82b366;" parent="1" vertex="1">
                    <mxGeometry x="180" y="1280" width="80" height="30" as="geometry"/>
                </mxCell>
                <mxCell id="117" value="$$Robot2$$" style="shape=hexagon;perimeter=hexagonPerimeter2;whiteSpace=wrap;html=1;fixedSize=1;fillColor=#d5e8d4;strokeColor=#82b366;" parent="1" vertex="1">
                    <mxGeometry x="300" y="1280" width="80" height="30" as="geometry"/>
                </mxCell>
                <mxCell id="118" value="$$Robot3$$" style="shape=hexagon;perimeter=hexagonPerimeter2;whiteSpace=wrap;html=1;fixedSize=1;fillColor=#d5e8d4;strokeColor=#82b366;" parent="1" vertex="1">
                    <mxGeometry x="420" y="1280" width="80" height="30" as="geometry"/>
                </mxCell>
                <mxCell id="119" value="$$Robot4$$" style="shape=hexagon;perimeter=hexagonPerimeter2;whiteSpace=wrap;html=1;fixedSize=1;fillColor=#d5e8d4;strokeColor=#82b366;" parent="1" vertex="1">
                    <mxGeometry x="540" y="1280" width="80" height="30" as="geometry"/>
                </mxCell>
                <mxCell id="120" value="" style="edgeStyle=none;html=1;" parent="1" source="121" target="128" edge="1">
                    <mxGeometry relative="1" as="geometry"/>
                </mxCell>
                <mxCell id="121" value="cap: 4&lt;br&gt;transtime: 2" style="text;html=1;strokeColor=none;fillColor=none;align=center;verticalAlign=middle;whiteSpace=wrap;rounded=0;" parent="1" vertex="1">
                    <mxGeometry x="180" y="1310" width="80" height="30" as="geometry"/>
                </mxCell>
                <mxCell id="122" value="" style="edgeStyle=none;html=1;" parent="1" source="123" target="129" edge="1">
                    <mxGeometry relative="1" as="geometry"/>
                </mxCell>
                <mxCell id="123" value="cap: 4&lt;br&gt;transtime: 4" style="text;html=1;strokeColor=none;fillColor=none;align=center;verticalAlign=middle;whiteSpace=wrap;rounded=0;" parent="1" vertex="1">
                    <mxGeometry x="300" y="1310" width="80" height="30" as="geometry"/>
                </mxCell>
                <mxCell id="124" style="edgeStyle=none;html=1;entryX=0.5;entryY=0;entryDx=0;entryDy=0;" parent="1" source="125" target="130" edge="1">
                    <mxGeometry relative="1" as="geometry"/>
                </mxCell>
                <mxCell id="125" value="cap: 8&lt;br&gt;transtime: 4" style="text;html=1;strokeColor=none;fillColor=none;align=center;verticalAlign=middle;whiteSpace=wrap;rounded=0;" parent="1" vertex="1">
                    <mxGeometry x="420" y="1310" width="80" height="30" as="geometry"/>
                </mxCell>
                <mxCell id="126" style="edgeStyle=none;html=1;" parent="1" source="127" target="131" edge="1">
                    <mxGeometry relative="1" as="geometry"/>
                </mxCell>
                <mxCell id="127" value="cap: 2&lt;br&gt;transtime: 0.5" style="text;html=1;strokeColor=none;fillColor=none;align=center;verticalAlign=middle;whiteSpace=wrap;rounded=0;" parent="1" vertex="1">
                    <mxGeometry x="540" y="1310" width="80" height="30" as="geometry"/>
                </mxCell>
                <mxCell id="133" value="" style="edgeStyle=none;html=1;" parent="1" source="128" target="132" edge="1">
                    <mxGeometry relative="1" as="geometry"/>
                </mxCell>
                <mxCell id="128" value="$$4 \div 2 = 2[/sec]$$" style="whiteSpace=wrap;html=1;" parent="1" vertex="1">
                    <mxGeometry x="160" y="1360" width="120" height="40" as="geometry"/>
                </mxCell>
                <mxCell id="135" value="" style="edgeStyle=none;html=1;" parent="1" source="129" target="134" edge="1">
                    <mxGeometry relative="1" as="geometry"/>
                </mxCell>
                <mxCell id="129" value="$$4 \div 4 = 1[/sec]$$" style="whiteSpace=wrap;html=1;" parent="1" vertex="1">
                    <mxGeometry x="280" y="1360" width="120" height="40" as="geometry"/>
                </mxCell>
                <mxCell id="137" value="" style="edgeStyle=none;html=1;" parent="1" source="130" target="136" edge="1">
                    <mxGeometry relative="1" as="geometry"/>
                </mxCell>
                <mxCell id="130" value="$$8 \div 4 = 2[/sec]$$" style="whiteSpace=wrap;html=1;" parent="1" vertex="1">
                    <mxGeometry x="400" y="1360" width="120" height="40" as="geometry"/>
                </mxCell>
                <mxCell id="139" value="" style="edgeStyle=none;html=1;" parent="1" source="131" target="138" edge="1">
                    <mxGeometry relative="1" as="geometry"/>
                </mxCell>
                <mxCell id="131" value="$$2 \div 0.5 = 4[/sec]$$" style="whiteSpace=wrap;html=1;" parent="1" vertex="1">
                    <mxGeometry x="520" y="1360" width="120" height="40" as="geometry"/>
                </mxCell>
                <mxCell id="132" value="$$ProcessPosition1$$" style="rounded=0;whiteSpace=wrap;html=1;fillColor=#e1d5e7;strokeColor=#9673a6;" parent="1" vertex="1">
                    <mxGeometry x="180" y="1450" width="80" height="30" as="geometry"/>
                </mxCell>
                <mxCell id="134" value="$$ProcessPosition2$$" style="rounded=0;whiteSpace=wrap;html=1;fillColor=#e1d5e7;strokeColor=#9673a6;" parent="1" vertex="1">
                    <mxGeometry x="300" y="1450" width="80" height="30" as="geometry"/>
                </mxCell>
                <mxCell id="136" value="$$ProcessPosition3$$" style="rounded=0;whiteSpace=wrap;html=1;fillColor=#e1d5e7;strokeColor=#9673a6;" parent="1" vertex="1">
                    <mxGeometry x="420" y="1450" width="80" height="30" as="geometry"/>
                </mxCell>
                <mxCell id="138" value="$$ProcessPosition4$$" style="rounded=0;whiteSpace=wrap;html=1;fillColor=#e1d5e7;strokeColor=#9673a6;" parent="1" vertex="1">
                    <mxGeometry x="540" y="1450" width="80" height="30" as="geometry"/>
                </mxCell>
                <mxCell id="141" value="材料情報&lt;br&gt;\(t_p = 100[sec]\)" style="shape=callout;whiteSpace=wrap;html=1;perimeter=calloutPerimeter;position2=0;size=10;position=0.08;" parent="1" vertex="1">
                    <mxGeometry x="440" y="1120" width="120" height="80" as="geometry"/>
                </mxCell>
                <mxCell id="143" value="cap: M1" style="text;html=1;strokeColor=none;fillColor=none;align=center;verticalAlign=middle;whiteSpace=wrap;rounded=0;" parent="1" vertex="1">
                    <mxGeometry x="180" y="1480" width="80" height="30" as="geometry"/>
                </mxCell>
                <mxCell id="144" value="cap: M2" style="text;html=1;strokeColor=none;fillColor=none;align=center;verticalAlign=middle;whiteSpace=wrap;rounded=0;" parent="1" vertex="1">
                    <mxGeometry x="300" y="1480" width="80" height="30" as="geometry"/>
                </mxCell>
                <mxCell id="145" value="cap: M3" style="text;html=1;strokeColor=none;fillColor=none;align=center;verticalAlign=middle;whiteSpace=wrap;rounded=0;" parent="1" vertex="1">
                    <mxGeometry x="420" y="1480" width="80" height="30" as="geometry"/>
                </mxCell>
                <mxCell id="146" value="cap: M4" style="text;html=1;strokeColor=none;fillColor=none;align=center;verticalAlign=middle;whiteSpace=wrap;rounded=0;" parent="1" vertex="1">
                    <mxGeometry x="540" y="1480" width="80" height="30" as="geometry"/>
                </mxCell>
                <mxCell id="147" value="各\(ProcessPositionM\)での材料処理能力は，\(60 \div t_p \times cap = 0.6cap[/min]\)である．&lt;br&gt;&lt;br&gt;各\(ProcessPosition\)の処理能力\(0.6cap[/min]\)が各\(Robot\)の最大流量を下回っている場合で，かつ，" style="text;html=1;strokeColor=none;fillColor=none;align=left;verticalAlign=top;whiteSpace=wrap;rounded=0;" parent="1" vertex="1">
                    <mxGeometry y="1520" width="800" height="100" as="geometry"/>
                </mxCell>
                <mxCell id="148" value="\(LootPosition\)，\(Robot\)，\(PassingPosition\)，\(ProcessPosition\)を用いて構成されたネットワーク\(N\)において，\(LootPosition\)から全ての\(ProcessPosition\)への経路における，最大流量が計算できたとき，複数の経路上を重複する\(Robot\)や，\(PassingPosition\)が存在した時の最大流量の計算について考える．" style="text;html=1;strokeColor=none;fillColor=none;align=left;verticalAlign=top;whiteSpace=wrap;rounded=0;" parent="1" vertex="1">
                    <mxGeometry y="1600" width="800" height="60" as="geometry"/>
                </mxCell>
                <mxCell id="156" style="edgeStyle=none;html=1;entryX=0.5;entryY=0;entryDx=0;entryDy=0;" parent="1" source="150" target="151" edge="1">
                    <mxGeometry relative="1" as="geometry"/>
                </mxCell>
                <mxCell id="157" style="edgeStyle=none;html=1;entryX=0.5;entryY=0;entryDx=0;entryDy=0;" parent="1" source="150" target="152" edge="1">
                    <mxGeometry relative="1" as="geometry"/>
                </mxCell>
                <mxCell id="163" style="edgeStyle=none;html=1;entryX=0.5;entryY=0;entryDx=0;entryDy=0;" parent="1" source="150" target="161" edge="1">
                    <mxGeometry relative="1" as="geometry"/>
                </mxCell>
                <mxCell id="164" style="edgeStyle=none;html=1;entryX=0.5;entryY=0;entryDx=0;entryDy=0;" parent="1" source="150" target="162" edge="1">
                    <mxGeometry relative="1" as="geometry"/>
                </mxCell>
                <mxCell id="150" value="$$LootPosition$$" style="rounded=0;whiteSpace=wrap;html=1;fillColor=#f5f5f5;fontColor=#333333;strokeColor=#666666;" parent="1" vertex="1">
                    <mxGeometry x="360" y="1680" width="80" height="30" as="geometry"/>
                </mxCell>
                <mxCell id="158" style="edgeStyle=none;html=1;entryX=0.5;entryY=0;entryDx=0;entryDy=0;" parent="1" source="151" target="153" edge="1">
                    <mxGeometry relative="1" as="geometry"/>
                </mxCell>
                <mxCell id="151" value="$$Robot$$" style="shape=hexagon;perimeter=hexagonPerimeter2;whiteSpace=wrap;html=1;fixedSize=1;fillColor=#d5e8d4;strokeColor=#82b366;" parent="1" vertex="1">
                    <mxGeometry x="160" y="1760" width="80" height="30" as="geometry"/>
                </mxCell>
                <mxCell id="152" value="$$Robot$$" style="shape=hexagon;perimeter=hexagonPerimeter2;whiteSpace=wrap;html=1;fixedSize=1;fillColor=#d5e8d4;strokeColor=#82b366;" parent="1" vertex="1">
                    <mxGeometry x="320" y="1760" width="80" height="30" as="geometry"/>
                </mxCell>
                <mxCell id="159" style="edgeStyle=none;html=1;entryX=0.5;entryY=0;entryDx=0;entryDy=0;" parent="1" source="153" target="154" edge="1">
                    <mxGeometry relative="1" as="geometry"/>
                </mxCell>
                <mxCell id="160" style="edgeStyle=none;html=1;entryX=0.5;entryY=0;entryDx=0;entryDy=0;" parent="1" source="153" target="155" edge="1">
                    <mxGeometry relative="1" as="geometry"/>
                </mxCell>
                <mxCell id="153" value="$$PassingPosition$$" style="rounded=0;whiteSpace=wrap;html=1;fillColor=#dae8fc;strokeColor=#6c8ebf;" parent="1" vertex="1">
                    <mxGeometry x="160" y="1840" width="80" height="30" as="geometry"/>
                </mxCell>
                <mxCell id="154" value="$$Robot$$" style="shape=hexagon;perimeter=hexagonPerimeter2;whiteSpace=wrap;html=1;fixedSize=1;fillColor=#d5e8d4;strokeColor=#82b366;" parent="1" vertex="1">
                    <mxGeometry x="80" y="1920" width="80" height="30" as="geometry"/>
                </mxCell>
                <mxCell id="155" value="$$Robot$$" style="shape=hexagon;perimeter=hexagonPerimeter2;whiteSpace=wrap;html=1;fixedSize=1;fillColor=#d5e8d4;strokeColor=#82b366;" parent="1" vertex="1">
                    <mxGeometry x="240" y="1920" width="80" height="30" as="geometry"/>
                </mxCell>
                <mxCell id="166" style="edgeStyle=none;html=1;entryX=0.5;entryY=0;entryDx=0;entryDy=0;" parent="1" source="161" target="165" edge="1">
                    <mxGeometry relative="1" as="geometry"/>
                </mxCell>
                <mxCell id="161" value="$$Robot$$" style="shape=hexagon;perimeter=hexagonPerimeter2;whiteSpace=wrap;html=1;fixedSize=1;fillColor=#d5e8d4;strokeColor=#82b366;" parent="1" vertex="1">
                    <mxGeometry x="520" y="1760" width="80" height="30" as="geometry"/>
                </mxCell>
                <mxCell id="167" style="edgeStyle=none;html=1;entryX=0.5;entryY=0;entryDx=0;entryDy=0;" parent="1" source="162" target="165" edge="1">
                    <mxGeometry relative="1" as="geometry"/>
                </mxCell>
                <mxCell id="162" value="$$Robot$$" style="shape=hexagon;perimeter=hexagonPerimeter2;whiteSpace=wrap;html=1;fixedSize=1;fillColor=#d5e8d4;strokeColor=#82b366;" parent="1" vertex="1">
                    <mxGeometry x="720" y="1760" width="80" height="30" as="geometry"/>
                </mxCell>
                <mxCell id="165" value="$$PassingPosition$$" style="rounded=0;whiteSpace=wrap;html=1;fillColor=#dae8fc;strokeColor=#6c8ebf;" parent="1" vertex="1">
                    <mxGeometry x="600" y="1840" width="80" height="30" as="geometry"/>
                </mxCell>
                <mxCell id="168" value="上記例では，経路は\(L1\sim L5\)の5個存在する．&lt;br&gt;\(L1\)と\(L2\)は\(Robot\)と\(PassingPosition\)を共有している．&lt;br&gt;\(L4\)と\(L5\)は合流する経路を持っている．" style="text;html=1;strokeColor=none;fillColor=none;align=left;verticalAlign=top;whiteSpace=wrap;rounded=0;" parent="1" vertex="1">
                    <mxGeometry y="2000" width="800" height="80" as="geometry"/>
                </mxCell>
                <mxCell id="170" value="" style="endArrow=classic;html=1;" parent="1" edge="1">
                    <mxGeometry width="50" height="50" relative="1" as="geometry">
                        <mxPoint x="320" y="1700" as="sourcePoint"/>
                        <mxPoint x="40" y="1960" as="targetPoint"/>
                        <Array as="points">
                            <mxPoint x="120" y="1760"/>
                            <mxPoint x="120" y="1880"/>
                        </Array>
                    </mxGeometry>
                </mxCell>
                <mxCell id="171" value="\(L1\)" style="text;html=1;strokeColor=none;fillColor=none;align=center;verticalAlign=middle;whiteSpace=wrap;rounded=0;" parent="1" vertex="1">
                    <mxGeometry x="90" y="1720" width="60" height="30" as="geometry"/>
                </mxCell>
                <mxCell id="172" value="" style="endArrow=classic;html=1;" parent="1" edge="1">
                    <mxGeometry width="50" height="50" relative="1" as="geometry">
                        <mxPoint x="360" y="1720" as="sourcePoint"/>
                        <mxPoint x="360" y="1960" as="targetPoint"/>
                        <Array as="points">
                            <mxPoint x="260" y="1760"/>
                            <mxPoint x="260" y="1880"/>
                        </Array>
                    </mxGeometry>
                </mxCell>
                <mxCell id="173" value="\(L2\)" style="text;html=1;strokeColor=none;fillColor=none;align=center;verticalAlign=middle;whiteSpace=wrap;rounded=0;" parent="1" vertex="1">
                    <mxGeometry x="260" y="1840" width="60" height="30" as="geometry"/>
                </mxCell>
                <mxCell id="175" value="\(L3\)" style="text;html=1;strokeColor=none;fillColor=none;align=center;verticalAlign=middle;whiteSpace=wrap;rounded=0;" parent="1" vertex="1">
                    <mxGeometry x="360" y="1800" width="60" height="30" as="geometry"/>
                </mxCell>
                <mxCell id="176" value="" style="endArrow=classic;html=1;" parent="1" edge="1">
                    <mxGeometry width="50" height="50" relative="1" as="geometry">
                        <mxPoint x="440" y="1720" as="sourcePoint"/>
                        <mxPoint x="600" y="1880" as="targetPoint"/>
                        <Array as="points">
                            <mxPoint x="520" y="1760"/>
                            <mxPoint x="520" y="1840"/>
                        </Array>
                    </mxGeometry>
                </mxCell>
                <mxCell id="177" value="" style="endArrow=classic;html=1;" parent="1" edge="1">
                    <mxGeometry width="50" height="50" relative="1" as="geometry">
                        <mxPoint x="480" y="1690" as="sourcePoint"/>
                        <mxPoint x="680" y="1880" as="targetPoint"/>
                        <Array as="points">
                            <mxPoint x="800" y="1740"/>
                            <mxPoint x="800" y="1800"/>
                        </Array>
                    </mxGeometry>
                </mxCell>
                <mxCell id="178" value="\(L4\)" style="text;html=1;strokeColor=none;fillColor=none;align=center;verticalAlign=middle;whiteSpace=wrap;rounded=0;" parent="1" vertex="1">
                    <mxGeometry x="460" y="1800" width="60" height="30" as="geometry"/>
                </mxCell>
                <mxCell id="179" value="\(L5\)" style="text;html=1;strokeColor=none;fillColor=none;align=center;verticalAlign=middle;whiteSpace=wrap;rounded=0;" parent="1" vertex="1">
                    <mxGeometry x="760" y="1840" width="60" height="30" as="geometry"/>
                </mxCell>
                <mxCell id="180" value="んなことより，まずはまともに1経路の流量を計算する．&lt;br&gt;\(LootPosition\)と\(Robot\)と\(Position\)で，計算方法が異なる．&lt;br&gt;&lt;br&gt;処理内容・マシン構成から，\(LootPosition\)から各\(ProcessPosition\)への経路が\(SPFA(Shortest Path Faster Algorithm)\)によって計算される．&lt;br&gt;\(LootPosition\)はcapacity\(= \infty\)の\(PassingPosition\)と捉えれる．&lt;br&gt;また，すべての\(Robot\)は必ず\(LootPosition\)か\(PassingPosition\)か\(ProcessPosition\)のいずれかの間に存在する．" style="text;html=1;strokeColor=none;fillColor=none;align=left;verticalAlign=top;whiteSpace=wrap;rounded=0;" parent="1" vertex="1">
                    <mxGeometry y="2160" width="800" height="100" as="geometry"/>
                </mxCell>
                <mxCell id="186" style="edgeStyle=none;html=1;entryX=0.5;entryY=0;entryDx=0;entryDy=0;" parent="1" source="181" target="182" edge="1">
                    <mxGeometry relative="1" as="geometry"/>
                </mxCell>
                <mxCell id="187" style="edgeStyle=none;html=1;entryX=0.5;entryY=0;entryDx=0;entryDy=0;" parent="1" source="181" target="183" edge="1">
                    <mxGeometry relative="1" as="geometry"/>
                </mxCell>
                <mxCell id="188" style="edgeStyle=none;html=1;entryX=0.5;entryY=0;entryDx=0;entryDy=0;" parent="1" source="181" target="184" edge="1">
                    <mxGeometry relative="1" as="geometry"/>
                </mxCell>
                <mxCell id="189" style="edgeStyle=none;html=1;entryX=0.5;entryY=0;entryDx=0;entryDy=0;" parent="1" source="181" target="185" edge="1">
                    <mxGeometry relative="1" as="geometry"/>
                </mxCell>
                <mxCell id="181" value="$$LootPosition$$" style="rounded=0;whiteSpace=wrap;html=1;fillColor=#f5f5f5;fontColor=#333333;strokeColor=#666666;" parent="1" vertex="1">
                    <mxGeometry x="360" y="2280" width="80" height="30" as="geometry"/>
                </mxCell>
                <mxCell id="197" style="edgeStyle=none;html=1;entryX=0.5;entryY=0;entryDx=0;entryDy=0;" parent="1" source="182" target="190" edge="1">
                    <mxGeometry relative="1" as="geometry"/>
                </mxCell>
                <mxCell id="182" value="$$Robot11$$" style="shape=hexagon;perimeter=hexagonPerimeter2;whiteSpace=wrap;html=1;fixedSize=1;fillColor=#d5e8d4;strokeColor=#82b366;" parent="1" vertex="1">
                    <mxGeometry x="120" y="2370" width="80" height="30" as="geometry"/>
                </mxCell>
                <mxCell id="183" value="$$Robot$$" style="shape=hexagon;perimeter=hexagonPerimeter2;whiteSpace=wrap;html=1;fixedSize=1;fillColor=#d5e8d4;strokeColor=#82b366;" parent="1" vertex="1">
                    <mxGeometry x="280" y="2370" width="80" height="30" as="geometry"/>
                </mxCell>
                <mxCell id="184" value="$$Robot$$" style="shape=hexagon;perimeter=hexagonPerimeter2;whiteSpace=wrap;html=1;fixedSize=1;fillColor=#d5e8d4;strokeColor=#82b366;" parent="1" vertex="1">
                    <mxGeometry x="440" y="2370" width="80" height="30" as="geometry"/>
                </mxCell>
                <mxCell id="185" value="$$Robot$$" style="shape=hexagon;perimeter=hexagonPerimeter2;whiteSpace=wrap;html=1;fixedSize=1;fillColor=#d5e8d4;strokeColor=#82b366;" parent="1" vertex="1">
                    <mxGeometry x="600" y="2370" width="80" height="30" as="geometry"/>
                </mxCell>
                <mxCell id="198" style="edgeStyle=none;html=1;entryX=0.5;entryY=0;entryDx=0;entryDy=0;" parent="1" source="190" target="191" edge="1">
                    <mxGeometry relative="1" as="geometry"/>
                </mxCell>
                <mxCell id="190" value="$$PassingPosition11$$" style="rounded=0;whiteSpace=wrap;html=1;fillColor=#dae8fc;strokeColor=#6c8ebf;" parent="1" vertex="1">
                    <mxGeometry x="120" y="2500" width="80" height="30" as="geometry"/>
                </mxCell>
                <mxCell id="199" style="edgeStyle=none;html=1;entryX=0.5;entryY=0;entryDx=0;entryDy=0;" parent="1" source="191" target="192" edge="1">
                    <mxGeometry relative="1" as="geometry"/>
                </mxCell>
                <mxCell id="191" value="$$Robot12$$" style="shape=hexagon;perimeter=hexagonPerimeter2;whiteSpace=wrap;html=1;fixedSize=1;fillColor=#d5e8d4;strokeColor=#82b366;" parent="1" vertex="1">
                    <mxGeometry x="120" y="2640" width="80" height="30" as="geometry"/>
                </mxCell>
                <mxCell id="200" style="edgeStyle=none;html=1;entryX=0.5;entryY=0;entryDx=0;entryDy=0;" parent="1" source="192" target="193" edge="1">
                    <mxGeometry relative="1" as="geometry"/>
                </mxCell>
                <mxCell id="192" value="$$PassingPosition12$$" style="rounded=0;whiteSpace=wrap;html=1;fillColor=#dae8fc;strokeColor=#6c8ebf;" parent="1" vertex="1">
                    <mxGeometry x="120" y="2720" width="80" height="30" as="geometry"/>
                </mxCell>
                <mxCell id="201" style="edgeStyle=none;html=1;entryX=0.5;entryY=0;entryDx=0;entryDy=0;" parent="1" source="193" target="194" edge="1">
                    <mxGeometry relative="1" as="geometry"/>
                </mxCell>
                <mxCell id="193" value="$$Robot13$$" style="shape=hexagon;perimeter=hexagonPerimeter2;whiteSpace=wrap;html=1;fixedSize=1;fillColor=#d5e8d4;strokeColor=#82b366;" parent="1" vertex="1">
                    <mxGeometry x="120" y="2800" width="80" height="30" as="geometry"/>
                </mxCell>
                <mxCell id="202" style="edgeStyle=none;html=1;entryX=0.5;entryY=0;entryDx=0;entryDy=0;" parent="1" source="194" target="196" edge="1">
                    <mxGeometry relative="1" as="geometry"/>
                </mxCell>
                <mxCell id="194" value="$$PassingPosition13$$" style="rounded=0;whiteSpace=wrap;html=1;fillColor=#dae8fc;strokeColor=#6c8ebf;" parent="1" vertex="1">
                    <mxGeometry x="120" y="2880" width="80" height="30" as="geometry"/>
                </mxCell>
                <mxCell id="195" value="$$ProcessPosition1$$" style="rounded=0;whiteSpace=wrap;html=1;fillColor=#e1d5e7;strokeColor=#9673a6;" parent="1" vertex="1">
                    <mxGeometry x="70" y="3123" width="80" height="30" as="geometry"/>
                </mxCell>
                <mxCell id="203" style="edgeStyle=none;html=1;entryX=0.5;entryY=0;entryDx=0;entryDy=0;" parent="1" source="196" target="195" edge="1">
                    <mxGeometry relative="1" as="geometry"/>
                </mxCell>
                <mxCell id="225" style="edgeStyle=none;html=1;entryX=0.5;entryY=0;entryDx=0;entryDy=0;" edge="1" parent="1" source="196" target="222">
                    <mxGeometry relative="1" as="geometry"/>
                </mxCell>
                <mxCell id="226" style="edgeStyle=none;html=1;entryX=0.5;entryY=0;entryDx=0;entryDy=0;" edge="1" parent="1" source="196" target="223">
                    <mxGeometry relative="1" as="geometry"/>
                </mxCell>
                <mxCell id="227" style="edgeStyle=none;html=1;entryX=0.5;entryY=0;entryDx=0;entryDy=0;" edge="1" parent="1" source="196" target="224">
                    <mxGeometry relative="1" as="geometry"/>
                </mxCell>
                <mxCell id="196" value="$$Robot14$$" style="shape=hexagon;perimeter=hexagonPerimeter2;whiteSpace=wrap;html=1;fixedSize=1;fillColor=#d5e8d4;strokeColor=#82b366;" parent="1" vertex="1">
                    <mxGeometry x="120" y="2963" width="80" height="30" as="geometry"/>
                </mxCell>
                <mxCell id="204" value="cap: CR1&lt;br&gt;transtime: TR1" style="text;html=1;strokeColor=none;fillColor=none;align=left;verticalAlign=top;whiteSpace=wrap;rounded=0;" parent="1" vertex="1">
                    <mxGeometry y="2360" width="120" height="40" as="geometry"/>
                </mxCell>
                <mxCell id="205" value="cap: CP1" style="text;html=1;strokeColor=none;fillColor=none;align=left;verticalAlign=top;whiteSpace=wrap;rounded=0;" parent="1" vertex="1">
                    <mxGeometry y="2500" width="120" height="40" as="geometry"/>
                </mxCell>
                <mxCell id="206" value="cap: CR2&lt;br&gt;transtime: TR2" style="text;html=1;strokeColor=none;fillColor=none;align=left;verticalAlign=top;whiteSpace=wrap;rounded=0;" parent="1" vertex="1">
                    <mxGeometry y="2640" width="120" height="40" as="geometry"/>
                </mxCell>
                <mxCell id="207" value="cap: CP2" style="text;html=1;strokeColor=none;fillColor=none;align=left;verticalAlign=top;whiteSpace=wrap;rounded=0;" parent="1" vertex="1">
                    <mxGeometry y="2720" width="120" height="40" as="geometry"/>
                </mxCell>
                <mxCell id="208" value="cap: CR3&lt;br&gt;transtime: TR3" style="text;html=1;strokeColor=none;fillColor=none;align=left;verticalAlign=top;whiteSpace=wrap;rounded=0;" parent="1" vertex="1">
                    <mxGeometry y="2800" width="120" height="40" as="geometry"/>
                </mxCell>
                <mxCell id="209" value="cap: CP3" style="text;html=1;strokeColor=none;fillColor=none;align=left;verticalAlign=top;whiteSpace=wrap;rounded=0;" parent="1" vertex="1">
                    <mxGeometry y="2880" width="120" height="40" as="geometry"/>
                </mxCell>
                <mxCell id="210" value="cap: CR4&lt;br&gt;transtime: TR4" style="text;html=1;strokeColor=none;fillColor=none;align=left;verticalAlign=top;whiteSpace=wrap;rounded=0;" parent="1" vertex="1">
                    <mxGeometry y="2963" width="120" height="40" as="geometry"/>
                </mxCell>
                <mxCell id="213" value="$$f_{P4}$$" style="text;html=1;strokeColor=none;fillColor=none;align=left;verticalAlign=top;whiteSpace=wrap;rounded=0;" vertex="1" parent="1">
                    <mxGeometry x="560" y="3370" width="80" height="40" as="geometry"/>
                </mxCell>
                <mxCell id="214" value="\(Robot11\)はTR1[sec]あたり，CR1枚の材料を搬送できるが，\(PassingPosition11\)は同時にCP1枚の材料しか受け取れない．" style="text;html=1;align=left;verticalAlign=top;whiteSpace=wrap;rounded=0;glass=0;strokeColor=default;shadow=0;" vertex="1" parent="1">
                    <mxGeometry y="2400" width="160" height="80" as="geometry"/>
                </mxCell>
                <mxCell id="215" value="\begin{align*}&lt;br&gt;F =\frac{1}{2}&lt;br&gt;min(\infty, CR1, CP1) \times \dfrac{60}{TR1}&lt;br&gt;\end{align*}" style="text;html=1;strokeColor=none;fillColor=none;align=left;verticalAlign=top;whiteSpace=wrap;rounded=0;" vertex="1" parent="1">
                    <mxGeometry x="80" y="2290" width="80" height="80" as="geometry"/>
                </mxCell>
                <mxCell id="216" value="\(PassingPosition11\)は同時にCP1枚しか供給できない．\(Robot12\)はTR2[sec]あたりCR2枚の材料を搬送できる．&lt;br&gt;\(PassingPosition12\)は同時にCP2枚しか受け取れない．" style="text;html=1;strokeColor=default;fillColor=none;align=left;verticalAlign=top;whiteSpace=wrap;rounded=0;" vertex="1" parent="1">
                    <mxGeometry y="2530" width="160" height="110" as="geometry"/>
                </mxCell>
                <mxCell id="217" value="\begin{align*}&lt;br&gt;F =\frac{1}{2}&lt;br&gt;min(CP1, CR2, CP2) \times \dfrac{60}{TR1}&lt;br&gt;\end{align*}" style="text;html=1;strokeColor=none;fillColor=none;align=left;verticalAlign=top;whiteSpace=wrap;rounded=0;" vertex="1" parent="1">
                    <mxGeometry x="200" y="2600" width="80" height="80" as="geometry"/>
                </mxCell>
                <mxCell id="218" value="\begin{align*}&lt;br&gt;F =\frac{1}{2}&lt;br&gt;min(CP2, CR3, CP3) \times \dfrac{60}{TR1}&lt;br&gt;\end{align*}" style="text;html=1;strokeColor=none;fillColor=none;align=left;verticalAlign=top;whiteSpace=wrap;rounded=0;" vertex="1" parent="1">
                    <mxGeometry x="200" y="2760" width="80" height="80" as="geometry"/>
                </mxCell>
                <mxCell id="219" value="\begin{align*}&lt;br&gt;F_R = \frac{1}{2}min(CP3, CR4) \times \dfrac{60}{TR1}&lt;br&gt;\end{align*}" style="text;html=1;strokeColor=none;fillColor=none;align=left;verticalAlign=top;whiteSpace=wrap;rounded=0;" vertex="1" parent="1">
                    <mxGeometry x="200" y="2923" width="280" height="80" as="geometry"/>
                </mxCell>
                <mxCell id="221" value="材料の\(ProcessPosition\)での処理時間が\(T_p\)だとすると，各\(ProcessPosition1\)は，\(F_P = \dfrac{60}{T_p+T_{in}+T_{out}}\)の処理能力を持つ．&lt;br&gt;ここで，\(Robot14\)の\(F_R\)と，\(ProcessPosition1\)の\(F_P\)の間で，線形計画問題を定義する．&lt;br&gt;\(F_P = \dfrac{1}{C} F_R\)と考えると，各\(ProcessPosition1\)の能力を最大限に活かすためには，\(Robot14\)は\(\dfrac{1}{C}\)の動作割合を該当の\(ProcessPosition1\)に割くことになるので，実現可能な最大の\(ProcessPosition1\)群の処理能力の最大値は，&lt;br&gt;$$f(x_1, x_2, ..., x_{N_{PP1}}) = x_1CF_P + x_2CF_P + ... + x_{N_{PP1}}CF_P$$&lt;br&gt;$$0 \leqq x_i \leqq \frac{1}{C}$$&lt;br&gt;$$x_1 + x_2 + ... + x_{N_{PP1}} \leqq 1(単位時間あたり流量の配分制約)$$&lt;br&gt;の式で定義される，関数\(f\)を最大化する線形計画問題を解く．&lt;br&gt;\(ProcessPosition1\)群の性能が均一である場合の線形計画問題の解は自明である．&lt;br&gt;この解によって，\(ProcessPosition1\)群の実現可能な処理能力の総和が求まり，この経路の処理能力が決まる．" style="text;html=1;strokeColor=default;fillColor=none;align=left;verticalAlign=top;whiteSpace=wrap;rounded=0;" vertex="1" parent="1">
                    <mxGeometry x="440" y="2650" width="400" height="430" as="geometry"/>
                </mxCell>
                <mxCell id="222" value="$$ProcessPosition1$$" style="rounded=0;whiteSpace=wrap;html=1;fillColor=#e1d5e7;strokeColor=#9673a6;" vertex="1" parent="1">
                    <mxGeometry x="240" y="3123" width="80" height="30" as="geometry"/>
                </mxCell>
                <mxCell id="223" value="$$ProcessPosition1$$" style="rounded=0;whiteSpace=wrap;html=1;fillColor=#e1d5e7;strokeColor=#9673a6;" vertex="1" parent="1">
                    <mxGeometry x="350" y="3123" width="80" height="30" as="geometry"/>
                </mxCell>
                <mxCell id="224" value="$$ProcessPosition1$$" style="rounded=0;whiteSpace=wrap;html=1;fillColor=#e1d5e7;strokeColor=#9673a6;" vertex="1" parent="1">
                    <mxGeometry x="460" y="3123" width="80" height="30" as="geometry"/>
                </mxCell>
                <mxCell id="228" value="" style="endArrow=none;dashed=1;html=1;dashPattern=1 3;strokeWidth=2;entryX=1;entryY=0.5;entryDx=0;entryDy=0;exitX=0;exitY=0.5;exitDx=0;exitDy=0;" edge="1" parent="1" source="222" target="195">
                    <mxGeometry width="50" height="50" relative="1" as="geometry">
                        <mxPoint x="420" y="3143" as="sourcePoint"/>
                        <mxPoint x="470" y="3093" as="targetPoint"/>
                    </mxGeometry>
                </mxCell>
                <mxCell id="229" value="" style="shape=curlyBracket;whiteSpace=wrap;html=1;rounded=1;labelPosition=left;verticalLabelPosition=middle;align=right;verticalAlign=middle;shadow=0;glass=0;sketch=0;strokeColor=default;direction=north;" vertex="1" parent="1">
                    <mxGeometry x="50" y="3163" width="500" height="20" as="geometry"/>
                </mxCell>
                <mxCell id="230" value="N_PP1" style="text;html=1;strokeColor=none;fillColor=none;align=left;verticalAlign=top;whiteSpace=wrap;rounded=0;" vertex="1" parent="1">
                    <mxGeometry x="280" y="3183" width="120" height="43" as="geometry"/>
                </mxCell>
                <mxCell id="231" value="\(LootPosition\)から見ると，\(Robot11\)を通る経路は，経路中の律速流量\(F_{b1} = min(F, ..., F_R, f(\mathbf{x}))\)と分岐方向の最初の\(Robot\)である\(Robot11\)の実現可能流量\(F\)から，高々\(\frac{1}{C_{R11}}F\)しか，\(LootPosition\)から流さなくてもよいことがわかる．&lt;br&gt;他の\(Robot\)についても，同様の計算を行い，線形計画問題を定義する．&lt;br&gt;$$f(x_1, x_2, x_3, x_4) = x_1C_{R11}F + x_2C_{R21}F + x_3C_{R31}F + x_4C_{R41}F$$&lt;br&gt;$$0 \leqq x_1 \leqq \frac{1}{C_{R11}}$$&lt;br&gt;$$0 \leqq x_2 \leqq \frac{1}{C_{R21}}$$&lt;br&gt;$$0 \leqq x_3 \leqq \frac{1}{C_{R31}}$$&lt;br&gt;$$0 \leqq x_4 \leqq \frac{1}{C_{R41}}$$&lt;br&gt;$$x_1 + x_2 + x_3 + x_4 \leqq 1(単位時間あたりのアクセス数制約)$$&lt;br&gt;この線形計画問題の解によって，各経路がマシン全体を考慮した際に実現できる処理能力が決定でき，総和がマシンのスループットとなる．" style="text;html=1;strokeColor=default;fillColor=none;align=left;verticalAlign=top;whiteSpace=wrap;rounded=0;" vertex="1" parent="1">
                    <mxGeometry x="850" y="2270" width="400" height="590" as="geometry"/>
                </mxCell>
                <mxCell id="237" style="edgeStyle=none;html=1;entryX=0.5;entryY=0;entryDx=0;entryDy=0;" edge="1" parent="1" source="232" target="235">
                    <mxGeometry relative="1" as="geometry"/>
                </mxCell>
                <mxCell id="232" value="$$LootPosition$$" style="rounded=0;whiteSpace=wrap;html=1;fillColor=#f5f5f5;fontColor=#333333;strokeColor=#666666;" vertex="1" parent="1">
                    <mxGeometry x="360" y="3240" width="80" height="30" as="geometry"/>
                </mxCell>
                <mxCell id="243" style="edgeStyle=none;html=1;entryX=0.5;entryY=0;entryDx=0;entryDy=0;" edge="1" parent="1" source="233" target="242">
                    <mxGeometry relative="1" as="geometry"/>
                </mxCell>
                <mxCell id="233" value="$$PassingPosition$$" style="rounded=0;whiteSpace=wrap;html=1;fillColor=#dae8fc;strokeColor=#6c8ebf;" vertex="1" parent="1">
                    <mxGeometry x="280" y="3400" width="80" height="30" as="geometry"/>
                </mxCell>
                <mxCell id="234" value="$$ProcessPosition$$" style="rounded=0;whiteSpace=wrap;html=1;fillColor=#e1d5e7;strokeColor=#9673a6;" vertex="1" parent="1">
                    <mxGeometry x="480" y="3400" width="80" height="30" as="geometry"/>
                </mxCell>
                <mxCell id="238" style="edgeStyle=none;html=1;entryX=0.5;entryY=0;entryDx=0;entryDy=0;" edge="1" parent="1" source="235" target="233">
                    <mxGeometry relative="1" as="geometry"/>
                </mxCell>
                <mxCell id="241" style="edgeStyle=none;html=1;entryX=0.5;entryY=0;entryDx=0;entryDy=0;" edge="1" parent="1" source="235" target="234">
                    <mxGeometry relative="1" as="geometry"/>
                </mxCell>
                <mxCell id="245" style="edgeStyle=none;html=1;entryX=0.5;entryY=0;entryDx=0;entryDy=0;" edge="1" parent="1" source="235" target="244">
                    <mxGeometry relative="1" as="geometry"/>
                </mxCell>
                <mxCell id="272" style="edgeStyle=none;html=1;entryX=0.5;entryY=0;entryDx=0;entryDy=0;" edge="1" parent="1" source="235" target="271">
                    <mxGeometry relative="1" as="geometry"/>
                </mxCell>
                <mxCell id="235" value="$$Robot$$" style="shape=hexagon;perimeter=hexagonPerimeter2;whiteSpace=wrap;html=1;fixedSize=1;fillColor=#d5e8d4;strokeColor=#82b366;" vertex="1" parent="1">
                    <mxGeometry x="360" y="3320" width="80" height="30" as="geometry"/>
                </mxCell>
                <mxCell id="251" style="edgeStyle=none;html=1;entryX=0.5;entryY=0;entryDx=0;entryDy=0;" edge="1" parent="1" source="242" target="250">
                    <mxGeometry relative="1" as="geometry"/>
                </mxCell>
                <mxCell id="253" style="edgeStyle=none;html=1;entryX=0.5;entryY=0;entryDx=0;entryDy=0;" edge="1" parent="1" source="242" target="252">
                    <mxGeometry relative="1" as="geometry"/>
                </mxCell>
                <mxCell id="242" value="$$Robot$$" style="shape=hexagon;perimeter=hexagonPerimeter2;whiteSpace=wrap;html=1;fixedSize=1;fillColor=#d5e8d4;strokeColor=#82b366;" vertex="1" parent="1">
                    <mxGeometry x="280" y="3480" width="80" height="30" as="geometry"/>
                </mxCell>
                <mxCell id="247" style="edgeStyle=none;html=1;entryX=0.5;entryY=0;entryDx=0;entryDy=0;" edge="1" parent="1" source="244" target="246">
                    <mxGeometry relative="1" as="geometry"/>
                </mxCell>
                <mxCell id="244" value="$$PassingPosition$$" style="rounded=0;whiteSpace=wrap;html=1;fillColor=#dae8fc;strokeColor=#6c8ebf;" vertex="1" parent="1">
                    <mxGeometry x="40" y="3400" width="80" height="30" as="geometry"/>
                </mxCell>
                <mxCell id="249" style="edgeStyle=none;html=1;entryX=0.5;entryY=0;entryDx=0;entryDy=0;" edge="1" parent="1" source="246" target="248">
                    <mxGeometry relative="1" as="geometry"/>
                </mxCell>
                <mxCell id="246" value="$$Robot$$" style="shape=hexagon;perimeter=hexagonPerimeter2;whiteSpace=wrap;html=1;fixedSize=1;fillColor=#d5e8d4;strokeColor=#82b366;" vertex="1" parent="1">
                    <mxGeometry x="40" y="3480" width="80" height="30" as="geometry"/>
                </mxCell>
                <mxCell id="248" value="$$ProcessPosition$$" style="rounded=0;whiteSpace=wrap;html=1;fillColor=#e1d5e7;strokeColor=#9673a6;" vertex="1" parent="1">
                    <mxGeometry x="40" y="3560" width="80" height="30" as="geometry"/>
                </mxCell>
                <mxCell id="255" style="edgeStyle=none;html=1;entryX=0.5;entryY=0;entryDx=0;entryDy=0;" edge="1" parent="1" source="250" target="254">
                    <mxGeometry relative="1" as="geometry"/>
                </mxCell>
                <mxCell id="250" value="$$PassingPosition$$" style="rounded=0;whiteSpace=wrap;html=1;fillColor=#dae8fc;strokeColor=#6c8ebf;" vertex="1" parent="1">
                    <mxGeometry x="280" y="3560" width="80" height="30" as="geometry"/>
                </mxCell>
                <mxCell id="257" style="edgeStyle=none;html=1;entryX=0.5;entryY=0;entryDx=0;entryDy=0;" edge="1" parent="1" source="252" target="256">
                    <mxGeometry relative="1" as="geometry"/>
                </mxCell>
                <mxCell id="252" value="$$PassingPosition$$" style="rounded=0;whiteSpace=wrap;html=1;fillColor=#dae8fc;strokeColor=#6c8ebf;" vertex="1" parent="1">
                    <mxGeometry x="440" y="3560" width="80" height="30" as="geometry"/>
                </mxCell>
                <mxCell id="260" style="edgeStyle=none;html=1;entryX=0.5;entryY=0;entryDx=0;entryDy=0;" edge="1" parent="1" source="254" target="258">
                    <mxGeometry relative="1" as="geometry"/>
                </mxCell>
                <mxCell id="254" value="$$Robot$$" style="shape=hexagon;perimeter=hexagonPerimeter2;whiteSpace=wrap;html=1;fixedSize=1;fillColor=#d5e8d4;strokeColor=#82b366;" vertex="1" parent="1">
                    <mxGeometry x="280" y="3640" width="80" height="30" as="geometry"/>
                </mxCell>
                <mxCell id="261" style="edgeStyle=none;html=1;entryX=0.5;entryY=0;entryDx=0;entryDy=0;" edge="1" parent="1" source="256" target="259">
                    <mxGeometry relative="1" as="geometry"/>
                </mxCell>
                <mxCell id="256" value="$$Robot$$" style="shape=hexagon;perimeter=hexagonPerimeter2;whiteSpace=wrap;html=1;fixedSize=1;fillColor=#d5e8d4;strokeColor=#82b366;" vertex="1" parent="1">
                    <mxGeometry x="440" y="3640" width="80" height="30" as="geometry"/>
                </mxCell>
                <mxCell id="258" value="$$ProcessPosition$$" style="rounded=0;whiteSpace=wrap;html=1;fillColor=#e1d5e7;strokeColor=#9673a6;" vertex="1" parent="1">
                    <mxGeometry x="280" y="3720" width="80" height="30" as="geometry"/>
                </mxCell>
                <mxCell id="259" value="$$ProcessPosition$$" style="rounded=0;whiteSpace=wrap;html=1;fillColor=#e1d5e7;strokeColor=#9673a6;" vertex="1" parent="1">
                    <mxGeometry x="440" y="3720" width="80" height="30" as="geometry"/>
                </mxCell>
                <mxCell id="262" value="$$F_{R5}$$" style="text;html=1;strokeColor=none;fillColor=none;align=left;verticalAlign=top;whiteSpace=wrap;rounded=0;" vertex="1" parent="1">
                    <mxGeometry x="520" y="3640" width="80" height="40" as="geometry"/>
                </mxCell>
                <mxCell id="263" value="$$f_{P3}$$" style="text;html=1;strokeColor=none;fillColor=none;align=left;verticalAlign=top;whiteSpace=wrap;rounded=0;" vertex="1" parent="1">
                    <mxGeometry x="520" y="3700" width="80" height="40" as="geometry"/>
                </mxCell>
                <mxCell id="264" value="$$F_{R4}$$" style="text;html=1;strokeColor=none;fillColor=none;align=left;verticalAlign=top;whiteSpace=wrap;rounded=0;" vertex="1" parent="1">
                    <mxGeometry x="200" y="3640" width="80" height="40" as="geometry"/>
                </mxCell>
                <mxCell id="265" value="$$f_{P2}$$" style="text;html=1;strokeColor=none;fillColor=none;align=left;verticalAlign=top;whiteSpace=wrap;rounded=0;" vertex="1" parent="1">
                    <mxGeometry x="200" y="3710" width="80" height="40" as="geometry"/>
                </mxCell>
                <mxCell id="266" value="$$F_{R3}$$" style="text;html=1;strokeColor=none;fillColor=none;align=left;verticalAlign=top;whiteSpace=wrap;rounded=0;" vertex="1" parent="1">
                    <mxGeometry x="360" y="3475" width="80" height="40" as="geometry"/>
                </mxCell>
                <mxCell id="267" value="$$F_{R2}$$" style="text;html=1;strokeColor=none;fillColor=none;align=left;verticalAlign=top;whiteSpace=wrap;rounded=0;" vertex="1" parent="1">
                    <mxGeometry x="120" y="3475" width="80" height="40" as="geometry"/>
                </mxCell>
                <mxCell id="268" value="$$f_{P1}$$" style="text;html=1;strokeColor=none;fillColor=none;align=left;verticalAlign=top;whiteSpace=wrap;rounded=0;" vertex="1" parent="1">
                    <mxGeometry x="120" y="3540" width="80" height="40" as="geometry"/>
                </mxCell>
                <mxCell id="269" value="$$F_{R1}$$" style="text;html=1;strokeColor=none;fillColor=none;align=left;verticalAlign=top;whiteSpace=wrap;rounded=0;" vertex="1" parent="1">
                    <mxGeometry x="440" y="3300" width="80" height="40" as="geometry"/>
                </mxCell>
                <mxCell id="275" style="edgeStyle=none;html=1;entryX=0.5;entryY=0;entryDx=0;entryDy=0;" edge="1" parent="1" source="271" target="273">
                    <mxGeometry relative="1" as="geometry"/>
                </mxCell>
                <mxCell id="276" style="edgeStyle=none;html=1;entryX=0.5;entryY=0;entryDx=0;entryDy=0;" edge="1" parent="1" source="271" target="274">
                    <mxGeometry relative="1" as="geometry"/>
                </mxCell>
                <mxCell id="271" value="$$PassingPosition$$" style="rounded=0;whiteSpace=wrap;html=1;fillColor=#dae8fc;strokeColor=#6c8ebf;" vertex="1" parent="1">
                    <mxGeometry x="640" y="3400" width="80" height="30" as="geometry"/>
                </mxCell>
                <mxCell id="278" style="edgeStyle=none;html=1;entryX=0.5;entryY=0;entryDx=0;entryDy=0;" edge="1" parent="1" source="273" target="277">
                    <mxGeometry relative="1" as="geometry"/>
                </mxCell>
                <mxCell id="273" value="$$Robot$$" style="shape=hexagon;perimeter=hexagonPerimeter2;whiteSpace=wrap;html=1;fixedSize=1;fillColor=#d5e8d4;strokeColor=#82b366;" vertex="1" parent="1">
                    <mxGeometry x="640" y="3480" width="80" height="30" as="geometry"/>
                </mxCell>
                <mxCell id="280" style="edgeStyle=none;html=1;entryX=0.5;entryY=0;entryDx=0;entryDy=0;" edge="1" parent="1" source="274" target="279">
                    <mxGeometry relative="1" as="geometry"/>
                </mxCell>
                <mxCell id="274" value="$$Robot$$" style="shape=hexagon;perimeter=hexagonPerimeter2;whiteSpace=wrap;html=1;fixedSize=1;fillColor=#d5e8d4;strokeColor=#82b366;" vertex="1" parent="1">
                    <mxGeometry x="800" y="3480" width="80" height="30" as="geometry"/>
                </mxCell>
                <mxCell id="277" value="$$ProcessPosition$$" style="rounded=0;whiteSpace=wrap;html=1;fillColor=#e1d5e7;strokeColor=#9673a6;" vertex="1" parent="1">
                    <mxGeometry x="640" y="3560" width="80" height="30" as="geometry"/>
                </mxCell>
                <mxCell id="279" value="$$ProcessPosition$$" style="rounded=0;whiteSpace=wrap;html=1;fillColor=#e1d5e7;strokeColor=#9673a6;" vertex="1" parent="1">
                    <mxGeometry x="800" y="3560" width="80" height="30" as="geometry"/>
                </mxCell>
                <mxCell id="281" value="$$F_{R6}$$" style="text;html=1;strokeColor=none;fillColor=none;align=left;verticalAlign=top;whiteSpace=wrap;rounded=0;" vertex="1" parent="1">
                    <mxGeometry x="720" y="3467" width="80" height="40" as="geometry"/>
                </mxCell>
                <mxCell id="282" value="$$F_{R7}$$" style="text;html=1;strokeColor=none;fillColor=none;align=left;verticalAlign=top;whiteSpace=wrap;rounded=0;" vertex="1" parent="1">
                    <mxGeometry x="880" y="3470" width="80" height="40" as="geometry"/>
                </mxCell>
                <mxCell id="283" value="$$f_{P5}$$" style="text;html=1;strokeColor=none;fillColor=none;align=left;verticalAlign=top;whiteSpace=wrap;rounded=0;" vertex="1" parent="1">
                    <mxGeometry x="720" y="3540" width="80" height="40" as="geometry"/>
                </mxCell>
                <mxCell id="284" value="$$f_{P6}$$" style="text;html=1;strokeColor=none;fillColor=none;align=left;verticalAlign=top;whiteSpace=wrap;rounded=0;" vertex="1" parent="1">
                    <mxGeometry x="880" y="3540" width="80" height="40" as="geometry"/>
                </mxCell>
                <mxCell id="285" value="$$&lt;br&gt;流量: min(F_{R2}, f_{P1})&lt;br&gt;$$" style="text;html=1;strokeColor=none;fillColor=none;align=left;verticalAlign=top;whiteSpace=wrap;rounded=0;" vertex="1" parent="1">
                    <mxGeometry x="40" y="3330" width="80" height="40" as="geometry"/>
                </mxCell>
                <mxCell id="286" value="$$&lt;br&gt;流量: min(f_{P4})&lt;br&gt;$$" style="text;html=1;strokeColor=none;fillColor=none;align=left;verticalAlign=top;whiteSpace=wrap;rounded=0;" vertex="1" parent="1">
                    <mxGeometry x="440" y="3430" width="80" height="40" as="geometry"/>
                </mxCell>
                <mxCell id="287" value="cap: P1" style="text;html=1;strokeColor=none;fillColor=none;align=left;verticalAlign=top;whiteSpace=wrap;rounded=0;" vertex="1" parent="1">
                    <mxGeometry x="720" y="3370" width="80" height="40" as="geometry"/>
                </mxCell>
                <mxCell id="288" value="$$&lt;br&gt;流量: min(F_{R6}, f_{P5})&lt;br&gt;$$" style="text;html=1;strokeColor=none;fillColor=none;align=left;verticalAlign=top;whiteSpace=wrap;rounded=0;" vertex="1" parent="1">
                    <mxGeometry x="640" y="3440" width="80" height="40" as="geometry"/>
                </mxCell>
                <mxCell id="289" value="$$&lt;br&gt;流量: min(F_{R7}, f_{P6})&lt;br&gt;$$" style="text;html=1;strokeColor=none;fillColor=none;align=left;verticalAlign=top;whiteSpace=wrap;rounded=0;" vertex="1" parent="1">
                    <mxGeometry x="800" y="3440" width="80" height="40" as="geometry"/>
                </mxCell>
                <mxCell id="291" value="\(PassingPosition\)が分岐点の場合でも同様の計算が可能か確認する．&lt;br&gt;&lt;br&gt;\begin{align*}&lt;br&gt;&amp;amp; F_{R6} = \frac{1}{2}min(P1, CR_6) \times \frac{60}{TR6} \\&lt;br&gt;&amp;amp; F_{R7} = \frac{1}{2}min(P1, CR_7) \times \frac{60}{TR7} \\&lt;br&gt;&amp;amp; 以上より，PassingPositionが分岐点でも，\\&lt;br&gt;&amp;amp; PassingPositionが最大効率で材料を保持している場合の，\\&lt;br&gt;&amp;amp; アクセス比率=単位時間あたりの流量配分制約を \\&lt;br&gt;&amp;amp; 考慮した状態のFを計算しているので，同様に線形計画問題を定義する．\\&lt;br&gt;&amp;amp; f(x_1, x_2) = x_1C_{R6}F_{R6} + x_2C_{R7}F_{R7} \\&lt;br&gt;&amp;amp; 0 \leqq x_i \leqq \frac{1}{Ci} \\&lt;br&gt;&amp;amp; x_1 + x_2 \leqq 1 (単位時間あたりのアクセス制約) \\&lt;br&gt;\end{align*}&lt;br&gt;&lt;br&gt;上記線形計画問題を解くことで，\(Robot\)から\(PassingPosition\)を見たときの最大流量が分かる．&lt;br&gt;" style="text;html=1;strokeColor=default;fillColor=none;align=left;verticalAlign=top;whiteSpace=wrap;rounded=0;shadow=0;glass=0;sketch=0;" vertex="1" parent="1">
                    <mxGeometry x="920" y="3160" width="560" height="350" as="geometry"/>
                </mxCell>
                <mxCell id="292" value="各経路ごとに，&lt;br&gt;&lt;ol&gt;&lt;li&gt;隣接ユニットを考慮した流量\(F\)を計算する．&lt;/li&gt;&lt;li&gt;経路中全ての隣接ユニットの\(F\)が求まったら，律速流量\(F_b\)を求める．&lt;/li&gt;&lt;li&gt;\(F_b\)に対して，経路中の各ユニットは高々\(\frac{1}{C_k}\)の流量を実現すれば良いことがわかる．&lt;/li&gt;&lt;li&gt;最後にマシン全体で流量の割り振りが決まった後に，各経路の実流量を再計算する．&lt;/li&gt;&lt;/ol&gt;" style="text;html=1;strokeColor=default;fillColor=none;align=left;verticalAlign=top;whiteSpace=wrap;rounded=0;" vertex="1" parent="1">
                    <mxGeometry x="440" y="2440" width="400" height="200" as="geometry"/>
                </mxCell>
                <mxCell id="293" value="$$&lt;br&gt;流量: f_{PP1}&lt;br&gt;$$" style="text;html=1;strokeColor=none;fillColor=none;align=left;verticalAlign=top;whiteSpace=wrap;rounded=0;" vertex="1" parent="1">
                    <mxGeometry x="640" y="3340" width="80" height="40" as="geometry"/>
                </mxCell>
                <mxCell id="295" value="$$&lt;br&gt;流量: min(F_{R4}, f_{P2})&lt;br&gt;$$" style="text;html=1;strokeColor=none;fillColor=none;align=left;verticalAlign=top;whiteSpace=wrap;rounded=0;" vertex="1" parent="1">
                    <mxGeometry x="220" y="3520" width="80" height="40" as="geometry"/>
                </mxCell>
                <mxCell id="296" value="$$&lt;br&gt;流量: min(F_{R5}, f_{P3})&lt;br&gt;$$" style="text;html=1;strokeColor=none;fillColor=none;align=left;verticalAlign=top;whiteSpace=wrap;rounded=0;" vertex="1" parent="1">
                    <mxGeometry x="400" y="3520" width="80" height="40" as="geometry"/>
                </mxCell>
                <mxCell id="297" value="経路の途中にある\(Robot\)が分岐点になった場合．&lt;br&gt;それより下部の各分岐方向の流量は，図のように\(min\)演算と\(ProcessPosition\)における線形計画問題を解くことで求められる．&lt;br&gt;\(F_{R3}\)での分岐時も，\(F_{R3}\)をどのように割り振れば下部が最大流量となるかの線形計画問題を解くことで，\(F_{R1}\)から見た時の抽象的な流量が決定する．&lt;br&gt;&lt;br&gt;" style="text;html=1;strokeColor=default;fillColor=none;align=left;verticalAlign=top;whiteSpace=wrap;rounded=0;shadow=0;glass=0;sketch=0;" vertex="1" parent="1">
                    <mxGeometry x="200" y="3760" width="560" height="100" as="geometry"/>
                </mxCell>
                <mxCell id="298" value="分岐計算の考え方．&lt;br&gt;&lt;ul&gt;&lt;li&gt;各ユニットの隣接ユニットを考慮した流量\(F\)が求まったら，経路の末端から計算を始める．&lt;/li&gt;&lt;li&gt;分岐が\(Robot-nPosition\)の場合は，\(Robot\)側が，下部の各分岐方向の\(min(\mathbf{F})\)に対して，高々\(\frac{1}{C}\)動けばよいかを考えて，線形計画問題を立式する．&lt;/li&gt;&lt;li&gt;分岐が\(Position-nRobot\)の場合は，各分岐方向の\(Robot\)がさらにそれより下部に対して高々\(\frac{1}{C}\)動けばよいかを求めて，線形計画問題を立式する．&lt;/li&gt;&lt;ul&gt;&lt;li&gt;\(Position-nRobot-nPosition\)の場合は，\(nRobot-nPosition\)間での線形計画問題の結果，\(nRobot\)が総合してどの程度動けばよいかが求まっているため，\(\frac{1}{C}\)は求まっているはず．&lt;/li&gt;&lt;/ul&gt;&lt;/ul&gt;" style="text;html=1;strokeColor=default;fillColor=none;align=left;verticalAlign=top;whiteSpace=wrap;rounded=0;" vertex="1" parent="1">
                    <mxGeometry x="800" y="3640" width="400" height="260" as="geometry"/>
                </mxCell>
            </root>
        </mxGraphModel>
    </diagram>
</mxfile>